<?xml version="1.0" encoding="utf-8"?>
<!-- Generator: Adobe Illustrator 15.1.0, SVG Export Plug-In . SVG Version: 6.00 Build 0)  -->
<!DOCTYPE svg PUBLIC "-//W3C//DTD SVG 1.1//EN" "http://www.w3.org/Graphics/SVG/1.1/DTD/svg11.dtd">
<svg version="1.1" id="Layer_1" xmlns="http://www.w3.org/2000/svg" xmlns:xlink="http://www.w3.org/1999/xlink" x="0px" y="0px"
	 width="198.425px" height="31.155px" viewBox="0 0 198.425 31.155" enable-background="new 0 0 198.425 31.155"
	 xml:space="preserve">
<polygon fill="#1B181C" points="145.634,0.443 154.564,0.443 154.564,6.582 163.255,6.582 163.255,0.443 172.185,0.443 
	172.185,18.542 163.255,18.542 163.255,11.446 154.564,11.446 154.564,18.542 145.634,18.542 "/>
<g>
	<path fill="#1B181C" d="M135.349,7.299c-0.158-0.662-1.186-2.949-4.785-2.949c-4.072,0-5.201,2.751-5.201,5.199
		c0,2.449,1.305,5,5.377,5c2.928,0,4.334-1.395,4.848-3.104h8.691c0,3.673-5.037,7.646-13.301,7.646
		c-9.135,0-14.686-4.177-14.686-9.561c0-5.74,5.986-9.523,14.686-9.523c7.752,0.026,12.229,2.726,12.981,7.291H135.349z"/>
	<path fill="#1B181C" d="M98.751,12.986c0.355,0.608,0.072,0.228,0.314,0.528c0.838,1.036,2.244,1.426,3.865,1.426
		c1.424,0,3.713-0.3,3.59-1.651c-0.079-0.877-1.275-0.812-6.18-1.729c-5.192-0.97-9.643-1.973-9.643-5.646
		c0-4.21,5.784-5.914,11.598-5.914c6.129,0,11.954,1.741,12.278,5.861l-8.767,0.013c-0.323-0.613-0.363-0.692-1.041-1.13
		c-0.659-0.426-1.683-0.559-2.551-0.559c-1.187,0-3.04-0.038-3.106,1.081c-0.083,1.431,6.493,2.149,8.289,2.468
		c4.895,0.871,7.813,2.231,7.831,4.962c0.031,4.745-6.762,6.274-13.051,6.274c-3.202,0-11.763-0.752-12.071-5.984H98.751z"/>
	<polygon fill="#1B181C" points="72.68,5.306 64.547,5.306 64.547,0.443 89.822,0.443 89.822,5.306 81.61,5.306 81.61,18.542 
		72.68,18.542 	"/>
	<polygon fill="#1B181C" points="41.026,0.443 63.271,0.443 63.271,4.699 49.956,4.699 49.956,7.3 61.118,7.3 61.118,11.446 
		49.956,11.446 49.956,14.252 63.67,14.252 63.67,18.542 41.026,18.542 	"/>
	<rect x="28.322" y="0.443" fill="#1B181C" width="8.93" height="18.099"/>
	<path fill="#1B181C" d="M0,0.443h14.365c8.172,0.114,12.119,4.374,12.119,8.965c0,5.587-3.947,9.209-13.874,9.128L0,18.497V0.443z
		 M9.266,14.325l2.986,0.026c4.226,0.039,5.302-2.711,5.302-4.983c0-1.915-0.558-4.743-6.02-4.664L9.266,4.7V14.325z"/>
	<polygon fill="#1B181C" points="175.782,0.464 198.027,0.464 198.027,4.721 184.712,4.721 184.712,7.321 195.874,7.321 
		195.874,11.467 184.712,11.467 184.712,14.275 198.425,14.275 198.425,18.563 175.782,18.563 	"/>
	<path fill="#1B181C" d="M1.372,28.542c0,0.281,0.048,0.521,0.143,0.719c0.096,0.197,0.229,0.359,0.399,0.486
		c0.171,0.125,0.368,0.217,0.589,0.275c0.223,0.059,0.463,0.088,0.723,0.088c0.28,0,0.519-0.033,0.717-0.098
		c0.197-0.064,0.358-0.148,0.481-0.252c0.123-0.102,0.211-0.219,0.267-0.352c0.055-0.135,0.081-0.27,0.081-0.406
		c0-0.279-0.063-0.486-0.189-0.619c-0.127-0.133-0.265-0.227-0.415-0.28c-0.26-0.097-0.562-0.187-0.907-0.272
		c-0.345-0.086-0.77-0.197-1.275-0.334c-0.314-0.08-0.574-0.189-0.783-0.322s-0.374-0.28-0.498-0.443
		c-0.122-0.166-0.209-0.34-0.26-0.523c-0.051-0.184-0.078-0.373-0.078-0.562c0-0.37,0.078-0.69,0.231-0.959
		c0.153-0.271,0.357-0.493,0.61-0.673c0.252-0.176,0.538-0.309,0.861-0.395c0.32-0.084,0.644-0.127,0.972-0.127
		c0.383,0,0.743,0.051,1.081,0.148c0.338,0.1,0.635,0.246,0.891,0.445s0.46,0.443,0.61,0.732c0.15,0.291,0.225,0.627,0.225,1.01
		h-1.28c-0.035-0.471-0.196-0.805-0.482-1c-0.287-0.193-0.652-0.291-1.096-0.291c-0.15,0-0.304,0.016-0.461,0.045
		c-0.157,0.031-0.3,0.082-0.43,0.154c-0.13,0.073-0.237,0.17-0.323,0.293c-0.085,0.123-0.128,0.275-0.128,0.461
		c0,0.258,0.081,0.461,0.241,0.607c0.16,0.148,0.37,0.26,0.63,0.334c0.027,0.008,0.134,0.035,0.323,0.089
		c0.187,0.05,0.397,0.106,0.63,0.167c0.231,0.063,0.458,0.122,0.68,0.18c0.222,0.059,0.381,0.1,0.476,0.129
		c0.24,0.074,0.448,0.176,0.625,0.307c0.178,0.129,0.327,0.277,0.446,0.445s0.209,0.346,0.267,0.537
		c0.058,0.194,0.087,0.383,0.087,0.574c0,0.411-0.084,0.76-0.252,1.051c-0.167,0.289-0.387,0.527-0.66,0.711
		s-0.584,0.32-0.932,0.404c-0.349,0.086-0.703,0.129-1.066,0.129c-0.416,0-0.808-0.05-1.177-0.154
		c-0.369-0.102-0.69-0.26-0.963-0.471c-0.274-0.211-0.492-0.484-0.656-0.814c-0.163-0.332-0.249-0.723-0.256-1.174H1.372z"/>
	<polygon fill="#1B181C" points="10.278,23.667 16.199,23.667 16.199,24.774 13.875,24.774 13.875,30.981 12.593,30.981 
		12.593,24.774 10.278,24.774 	"/>
	<path fill="#1B181C" d="M20.824,23.667h3.493c0.806,0,1.41,0.174,1.813,0.523c0.403,0.348,0.605,0.832,0.605,1.452
		c0,0.351-0.052,0.638-0.154,0.866c-0.103,0.23-0.222,0.414-0.359,0.555c-0.136,0.139-0.271,0.24-0.404,0.303
		c-0.133,0.061-0.232,0.102-0.293,0.121v0.021c0.11,0.014,0.227,0.047,0.354,0.102c0.126,0.055,0.244,0.143,0.354,0.262
		c0.109,0.119,0.2,0.275,0.271,0.465c0.072,0.193,0.107,0.431,0.107,0.717c0,0.432,0.033,0.822,0.098,1.173
		c0.064,0.353,0.166,0.604,0.302,0.755h-1.372c-0.097-0.158-0.153-0.332-0.17-0.523c-0.017-0.191-0.025-0.375-0.025-0.553
		c0-0.334-0.021-0.623-0.062-0.865s-0.116-0.445-0.225-0.606c-0.109-0.159-0.258-0.276-0.446-0.351
		c-0.187-0.076-0.428-0.113-0.721-0.113h-1.885v3.012h-1.281V23.667z M22.105,26.997h2.1c0.409,0,0.72-0.098,0.932-0.293
		c0.211-0.195,0.317-0.486,0.317-0.877c0-0.23-0.034-0.42-0.102-0.566c-0.069-0.148-0.163-0.262-0.282-0.344
		c-0.12-0.082-0.256-0.137-0.41-0.164c-0.153-0.027-0.312-0.041-0.476-0.041h-2.079V26.997z"/>
	<path fill="#1B181C" d="M34.108,23.667h1.362l2.817,7.314h-1.374l-0.685-1.938h-2.92l-0.686,1.938h-1.321L34.108,23.667z
		 M33.657,28.071h2.232l-1.095-3.146h-0.032L33.657,28.071z"/>
	<path fill="#1B181C" d="M43.573,28.542c0,0.281,0.047,0.521,0.144,0.719c0.095,0.197,0.228,0.359,0.399,0.486
		c0.17,0.125,0.367,0.217,0.589,0.275c0.222,0.059,0.463,0.088,0.722,0.088c0.28,0,0.519-0.033,0.717-0.098
		c0.198-0.064,0.359-0.148,0.482-0.252c0.122-0.102,0.211-0.219,0.266-0.352c0.055-0.135,0.082-0.27,0.082-0.406
		c0-0.279-0.064-0.486-0.189-0.619c-0.127-0.133-0.265-0.227-0.416-0.28c-0.259-0.097-0.562-0.187-0.906-0.272
		c-0.345-0.086-0.771-0.197-1.276-0.334c-0.314-0.08-0.574-0.189-0.783-0.322c-0.208-0.133-0.374-0.28-0.497-0.443
		c-0.122-0.166-0.21-0.34-0.261-0.523c-0.051-0.184-0.077-0.373-0.077-0.562c0-0.37,0.077-0.69,0.23-0.959
		c0.154-0.271,0.357-0.493,0.61-0.673c0.252-0.176,0.539-0.309,0.861-0.395c0.32-0.084,0.644-0.127,0.973-0.127
		c0.382,0,0.742,0.051,1.08,0.148c0.338,0.1,0.636,0.246,0.891,0.445c0.256,0.199,0.46,0.443,0.61,0.732
		c0.15,0.291,0.225,0.627,0.225,1.01h-1.28c-0.034-0.471-0.195-0.805-0.482-1c-0.286-0.193-0.652-0.291-1.095-0.291
		c-0.151,0-0.305,0.016-0.462,0.045c-0.157,0.031-0.3,0.082-0.43,0.154c-0.129,0.073-0.236,0.17-0.323,0.293
		c-0.085,0.123-0.127,0.275-0.127,0.461c0,0.258,0.08,0.461,0.24,0.607c0.16,0.148,0.371,0.26,0.63,0.334
		c0.027,0.008,0.134,0.035,0.323,0.089c0.188,0.05,0.398,0.106,0.63,0.167c0.232,0.063,0.458,0.122,0.681,0.18
		c0.222,0.059,0.381,0.1,0.477,0.129c0.238,0.074,0.447,0.176,0.624,0.307c0.178,0.129,0.326,0.277,0.446,0.445
		c0.119,0.168,0.208,0.346,0.266,0.537c0.058,0.194,0.087,0.383,0.087,0.574c0,0.411-0.083,0.76-0.251,1.051
		c-0.167,0.289-0.387,0.527-0.66,0.711c-0.274,0.184-0.585,0.32-0.933,0.404c-0.348,0.086-0.703,0.129-1.065,0.129
		c-0.417,0-0.809-0.05-1.178-0.154c-0.368-0.102-0.69-0.26-0.963-0.471s-0.491-0.484-0.655-0.814
		c-0.164-0.332-0.25-0.723-0.257-1.174H43.573z"/>
	<path fill="#1B181C" d="M54.073,28.542c0,0.281,0.048,0.521,0.144,0.719c0.095,0.197,0.229,0.359,0.399,0.486
		c0.17,0.125,0.367,0.217,0.589,0.275c0.222,0.059,0.463,0.088,0.722,0.088c0.28,0,0.519-0.033,0.718-0.098
		c0.197-0.064,0.358-0.148,0.481-0.252c0.122-0.102,0.212-0.219,0.266-0.352c0.055-0.135,0.082-0.27,0.082-0.406
		c0-0.279-0.064-0.486-0.189-0.619c-0.127-0.133-0.265-0.227-0.416-0.28c-0.259-0.097-0.562-0.187-0.906-0.272
		c-0.344-0.086-0.769-0.197-1.275-0.334c-0.315-0.08-0.575-0.189-0.783-0.322c-0.209-0.133-0.375-0.28-0.498-0.443
		c-0.122-0.166-0.21-0.34-0.261-0.523c-0.051-0.184-0.077-0.373-0.077-0.562c0-0.37,0.077-0.69,0.231-0.959
		c0.154-0.271,0.356-0.493,0.61-0.673c0.252-0.176,0.539-0.309,0.86-0.395c0.32-0.084,0.645-0.127,0.973-0.127
		c0.382,0,0.743,0.051,1.08,0.148c0.338,0.1,0.635,0.246,0.891,0.445c0.256,0.199,0.46,0.443,0.61,0.732
		c0.15,0.291,0.225,0.627,0.225,1.01h-1.28c-0.034-0.471-0.194-0.805-0.481-1c-0.287-0.193-0.653-0.291-1.096-0.291
		c-0.151,0-0.304,0.016-0.461,0.045c-0.157,0.031-0.301,0.082-0.431,0.154c-0.129,0.073-0.236,0.17-0.322,0.293
		c-0.086,0.123-0.128,0.275-0.128,0.461c0,0.258,0.08,0.461,0.241,0.607c0.16,0.148,0.37,0.26,0.63,0.334
		c0.027,0.008,0.134,0.035,0.322,0.089c0.188,0.05,0.398,0.106,0.63,0.167c0.233,0.063,0.46,0.122,0.681,0.18
		c0.222,0.059,0.381,0.1,0.477,0.129c0.238,0.074,0.447,0.176,0.624,0.307c0.178,0.129,0.327,0.277,0.446,0.445
		c0.12,0.168,0.208,0.346,0.266,0.537c0.058,0.194,0.087,0.383,0.087,0.574c0,0.411-0.083,0.76-0.25,1.051
		c-0.168,0.289-0.388,0.527-0.661,0.711c-0.274,0.184-0.585,0.32-0.932,0.404c-0.348,0.086-0.704,0.129-1.066,0.129
		c-0.417,0-0.809-0.05-1.178-0.154c-0.368-0.102-0.689-0.26-0.963-0.471c-0.273-0.211-0.491-0.484-0.655-0.814
		c-0.164-0.332-0.249-0.723-0.256-1.174H54.073z"/>
	<polygon fill="#1B181C" points="63.721,23.667 68.986,23.667 68.986,24.774 65,24.774 65,26.688 68.689,26.688 68.689,27.733 
		65,27.733 65,29.874 69.058,29.874 69.058,30.981 63.721,30.981 	"/>
	<polygon fill="#1B181C" points="73.959,23.667 75.312,23.667 78.65,29.056 78.671,29.056 78.671,23.667 79.891,23.667 
		79.891,30.981 78.538,30.981 75.209,25.604 75.178,25.604 75.178,30.981 73.959,30.981 	"/>
	<rect x="85.072" y="27.642" fill="#1B181C" width="2.98" height="1.104"/>
	<path fill="#1B181C" d="M96.44,23.667h1.281v4.26c0,0.246,0.011,0.496,0.035,0.748c0.023,0.254,0.092,0.48,0.204,0.682
		c0.113,0.204,0.284,0.37,0.513,0.498c0.229,0.129,0.552,0.193,0.969,0.193c0.416,0,0.738-0.064,0.968-0.193
		c0.229-0.128,0.399-0.294,0.513-0.498c0.112-0.201,0.181-0.428,0.204-0.682c0.024-0.252,0.037-0.502,0.037-0.748v-4.26h1.278v4.682
		c0,0.471-0.071,0.881-0.215,1.229c-0.142,0.348-0.346,0.641-0.608,0.877c-0.263,0.234-0.58,0.41-0.947,0.527
		c-0.369,0.115-0.779,0.174-1.229,0.174c-0.451,0-0.861-0.059-1.23-0.174c-0.368-0.117-0.684-0.293-0.946-0.527
		c-0.263-0.236-0.466-0.529-0.609-0.877c-0.144-0.348-0.216-0.758-0.216-1.229V23.667z"/>
	<polygon fill="#1B181C" points="107.716,23.667 109.068,23.667 112.406,29.056 112.427,29.056 112.427,23.667 113.646,23.667 
		113.646,30.981 112.294,30.981 108.966,25.604 108.935,25.604 108.935,30.981 107.716,30.981 	"/>
	<path fill="#1B181C" d="M118.984,23.667h3.031c0.562,0,1.045,0.096,1.455,0.287c0.409,0.189,0.744,0.453,1.004,0.783
		c0.26,0.332,0.453,0.718,0.578,1.162c0.127,0.443,0.189,0.918,0.189,1.426c0,0.504-0.063,0.979-0.189,1.423
		c-0.125,0.442-0.318,0.831-0.578,1.161c-0.26,0.332-0.595,0.594-1.004,0.783c-0.41,0.193-0.894,0.287-1.455,0.287h-3.031V23.667z
		 M120.263,29.935h1.262c0.498,0,0.906-0.064,1.224-0.197c0.317-0.135,0.565-0.318,0.746-0.555c0.181-0.234,0.306-0.512,0.37-0.83
		c0.064-0.316,0.098-0.66,0.098-1.027c0-0.37-0.033-0.713-0.098-1.031c-0.064-0.316-0.189-0.594-0.37-0.83
		c-0.181-0.234-0.429-0.418-0.746-0.553c-0.317-0.131-0.726-0.199-1.224-0.199h-1.262V29.935z"/>
	<polygon fill="#1B181C" points="133.897,23.667 139.818,23.667 139.818,24.774 137.494,24.774 137.494,30.981 136.212,30.981 
		136.212,24.774 133.897,24.774 	"/>
	<rect x="144.444" y="23.667" fill="#1B181C" width="1.28" height="7.314"/>
	<polygon fill="#1B181C" points="151.078,23.667 156.341,23.667 156.341,24.774 152.358,24.774 152.358,26.688 156.046,26.688 
		156.046,27.733 152.358,27.733 152.358,29.874 156.414,29.874 156.414,30.981 151.078,30.981 	"/>
	<polygon fill="#1B181C" points="161.341,23.667 166.392,23.667 166.392,24.774 162.623,24.774 162.623,26.688 165.931,26.688 
		165.931,27.733 162.623,27.733 162.623,30.981 161.341,30.981 	"/>
	<path fill="#1B181C" d="M171.103,23.667h3.555c0.656,0,1.182,0.15,1.578,0.451c0.395,0.301,0.594,0.755,0.594,1.361
		c0,0.369-0.092,0.685-0.272,0.947c-0.181,0.264-0.438,0.467-0.772,0.611v0.02c0.451,0.096,0.791,0.309,1.024,0.641
		c0.232,0.332,0.349,0.746,0.349,1.244c0,0.287-0.051,0.556-0.154,0.806c-0.104,0.247-0.264,0.464-0.482,0.644
		c-0.218,0.182-0.498,0.324-0.839,0.432c-0.341,0.105-0.748,0.156-1.218,0.156h-3.361V23.667z M172.384,26.729h2.09
		c0.309,0,0.563-0.088,0.768-0.262c0.206-0.174,0.308-0.424,0.308-0.752c0-0.369-0.092-0.629-0.276-0.779
		c-0.185-0.148-0.449-0.225-0.799-0.225h-2.09V26.729z M172.384,29.935h2.264c0.389,0,0.691-0.1,0.906-0.301
		c0.217-0.201,0.323-0.486,0.323-0.855c0-0.361-0.106-0.641-0.323-0.836c-0.215-0.193-0.518-0.291-0.906-0.291h-2.264V29.935z"/>
	<path fill="#1B181C" d="M184.047,23.667h1.362l2.815,7.314h-1.372l-0.687-1.938h-2.919l-0.686,1.938h-1.322L184.047,23.667z
		 M183.595,28.071h2.234l-1.098-3.146h-0.031L183.595,28.071z"/>
	<path fill="#1B181C" d="M192.402,23.667h1.281v4.26c0,0.246,0.012,0.496,0.037,0.748c0.023,0.254,0.09,0.48,0.202,0.682
		c0.114,0.204,0.284,0.37,0.513,0.498c0.229,0.129,0.553,0.193,0.969,0.193s0.738-0.064,0.968-0.193
		c0.229-0.128,0.399-0.294,0.511-0.498c0.114-0.201,0.184-0.428,0.206-0.682c0.024-0.252,0.036-0.502,0.036-0.748v-4.26h1.279v4.682
		c0,0.471-0.07,0.881-0.215,1.229c-0.143,0.348-0.346,0.641-0.608,0.877c-0.263,0.234-0.579,0.41-0.949,0.527
		c-0.368,0.115-0.778,0.174-1.228,0.174c-0.45,0-0.861-0.059-1.23-0.174c-0.367-0.117-0.684-0.293-0.945-0.527
		c-0.265-0.236-0.467-0.529-0.61-0.877s-0.216-0.758-0.216-1.229V23.667z"/>
</g>
</svg>
